<svg width="96" height="35" viewBox="0 0 96 35" fill="none" xmlns="http://www.w3.org/2000/svg">
<g filter="url(#filter0_d)">
<path d="M11.5957 26L4.75781 0.230469H8.25586L12.1758 17.123C12.5977 18.8926 12.9609 20.6504 13.2656 22.3965C13.9219 19.6426 14.3086 18.0547 14.4258 17.6328L19.3301 0.230469H23.4434L27.1348 13.2734C28.0605 16.5078 28.7285 19.5488 29.1387 22.3965C29.4668 20.7676 29.8945 18.8984 30.4219 16.7891L34.4648 0.230469H37.8926L30.8262 26H27.5391L22.1074 6.36523C21.6504 4.72461 21.3809 3.7168 21.2988 3.3418C21.0293 4.52539 20.7773 5.5332 20.543 6.36523L15.0762 26H11.5957ZM38.8418 16.666C38.8418 13.209 39.8027 10.6484 41.7246 8.98438C43.3301 7.60156 45.2871 6.91016 47.5957 6.91016C50.1621 6.91016 52.2598 7.75391 53.8887 9.44141C55.5176 11.1172 56.332 13.4375 56.332 16.4023C56.332 18.8047 55.9688 20.6973 55.2422 22.0801C54.5273 23.4512 53.4785 24.5176 52.0957 25.2793C50.7246 26.041 49.2246 26.4219 47.5957 26.4219C44.9824 26.4219 42.8672 25.584 41.25 23.9082C39.6445 22.2324 38.8418 19.8184 38.8418 16.666ZM42.0938 16.666C42.0938 19.0566 42.6152 20.8496 43.6582 22.0449C44.7012 23.2285 46.0137 23.8203 47.5957 23.8203C49.166 23.8203 50.4727 23.2227 51.5156 22.0273C52.5586 20.832 53.0801 19.0098 53.0801 16.5605C53.0801 14.252 52.5527 12.5059 51.498 11.3223C50.4551 10.127 49.1543 9.5293 47.5957 9.5293C46.0137 9.5293 44.7012 10.1211 43.6582 11.3047C42.6152 12.4883 42.0938 14.2754 42.0938 16.666ZM64.9629 26L58.125 0.230469H61.623L65.543 17.123C65.9648 18.8926 66.3281 20.6504 66.6328 22.3965C67.2891 19.6426 67.6758 18.0547 67.793 17.6328L72.6973 0.230469H76.8105L80.502 13.2734C81.4277 16.5078 82.0957 19.5488 82.5059 22.3965C82.834 20.7676 83.2617 18.8984 83.7891 16.7891L87.832 0.230469H91.2598L84.1934 26H80.9062L75.4746 6.36523C75.0176 4.72461 74.748 3.7168 74.666 3.3418C74.3965 4.52539 74.1445 5.5332 73.9102 6.36523L68.4434 26H64.9629Z" fill="#FF8E4F"/>
</g>
<defs>
<filter id="filter0_d" x="0.757812" y="0.230469" width="94.502" height="34.1914" filterUnits="userSpaceOnUse" color-interpolation-filters="sRGB">
<feFlood flood-opacity="0" result="BackgroundImageFix"/>
<feColorMatrix in="SourceAlpha" type="matrix" values="0 0 0 0 0 0 0 0 0 0 0 0 0 0 0 0 0 0 127 0"/>
<feOffset dy="4"/>
<feGaussianBlur stdDeviation="2"/>
<feColorMatrix type="matrix" values="0 0 0 0 0 0 0 0 0 0 0 0 0 0 0 0 0 0 0.25 0"/>
<feBlend mode="normal" in2="BackgroundImageFix" result="effect1_dropShadow"/>
<feBlend mode="normal" in="SourceGraphic" in2="effect1_dropShadow" result="shape"/>
</filter>
</defs>
</svg>
